<svg width="65" height="64" viewBox="0 0 65 64" fill="none" xmlns="http://www.w3.org/2000/svg">
<path fill-rule="evenodd" clip-rule="evenodd" d="M32.0017 0C14.327 0 0.00170898 14.6879 0.00170898 32.81C0.00170898 47.3038 9.16794 59.6034 21.8858 63.9456C23.4868 64.2417 24.0643 63.2318 24.0643 62.3634C24.0643 61.5837 24.0386 59.5179 24.029 56.7843C15.1258 58.7646 13.2457 52.3829 13.2457 52.3829C11.7956 48.5933 9.69411 47.5834 9.69411 47.5834C6.79056 45.5472 9.91549 45.5932 9.91549 45.5932C13.1302 45.8235 14.8146 48.9749 14.8146 48.9749C17.67 53.9882 22.3093 52.5408 24.1252 51.7019C24.4172 49.5802 25.2514 48.1328 26.1625 47.3137C19.0593 46.488 11.5902 43.6721 11.5902 31.0962C11.5902 27.5204 12.8383 24.5861 14.8756 22.2966C14.5515 21.4643 13.4447 18.1254 15.1932 13.6122C15.1932 13.6122 17.8786 12.7273 23.9905 16.9708C26.6008 16.2427 29.2934 15.8711 31.9985 15.8655C34.7037 15.87 37.3964 16.2417 40.0065 16.9708C46.1216 12.724 48.8038 13.6122 48.8038 13.6122C50.5523 18.1254 49.4551 21.4643 49.1214 22.2966C51.1748 24.5861 52.4068 27.5171 52.4068 31.0962C52.4068 43.705 44.9313 46.4748 37.8024 47.2873C38.9413 48.3005 39.968 50.3006 39.968 53.3599C39.968 57.7481 39.9295 61.2877 39.9295 62.3634C39.9295 63.2417 40.5006 64.2614 42.1337 63.9391C54.8451 59.5903 64.0017 47.3005 64.0017 32.81C64.0017 14.6879 49.6765 0 32.0017 0Z" fill="#03193A"/>
</svg>
