<svg width="204" height="46" viewBox="0 0 204 46" fill="none" xmlns="http://www.w3.org/2000/svg">
<path d="M65.0537 0.489364H66.1919L71.8831 14.0851H70.4555L68.6806 9.83404H62.5264L60.7708 14.0851H59.3239L65.0537 0.489364ZM68.3719 8.78085L65.6131 2.05957L62.8158 8.78085H68.3719ZM73.6346 0.106384H74.9464V11.8255C74.9464 12.3234 75.0365 12.6489 75.2165 12.8021C75.3966 12.9553 75.6152 13.0319 75.8725 13.0319C76.104 13.0319 76.3355 13.0064 76.567 12.9553C76.7985 12.9043 76.9979 12.8532 77.1651 12.8021L77.3966 13.8553C77.1522 13.9574 76.85 14.0404 76.4898 14.1043C76.1426 14.1681 75.8403 14.2 75.5831 14.2C74.9915 14.2 74.5156 14.0277 74.1555 13.683C73.8082 13.3383 73.6346 12.866 73.6346 12.266V0.106384ZM83.1739 14.2766C82.4536 14.2766 81.7848 14.1426 81.1675 13.8745C80.5501 13.5936 80.0164 13.217 79.5662 12.7447C79.116 12.2596 78.7624 11.7043 78.5051 11.0787C78.2607 10.4532 78.1386 9.78298 78.1386 9.06809C78.1386 8.13617 78.3508 7.28085 78.7752 6.50213C79.2125 5.72341 79.8106 5.10426 80.5694 4.64468C81.3282 4.17234 82.19 3.93617 83.1546 3.93617C84.1449 3.93617 85.0066 4.17234 85.7397 4.64468C86.4857 5.11702 87.0709 5.74255 87.4953 6.52128C87.9198 7.28723 88.132 8.12979 88.132 9.04894C88.132 9.15106 88.132 9.25319 88.132 9.35532C88.132 9.44468 88.1256 9.51489 88.1127 9.56596H79.5083C79.5726 10.2809 79.772 10.9191 80.1064 11.4808C80.4536 12.0298 80.8974 12.4702 81.4375 12.8021C81.9906 13.1213 82.5887 13.2809 83.2317 13.2809C83.8877 13.2809 84.505 13.1149 85.0838 12.783C85.6754 12.4511 86.087 12.017 86.3185 11.4808L87.4568 11.7872C87.251 12.2596 86.9359 12.6872 86.5114 13.0702C86.087 13.4532 85.5854 13.7532 85.0066 13.9702C84.4407 14.1745 83.8298 14.2766 83.1739 14.2766ZM79.4697 8.62766H86.8973C86.8458 7.9 86.6465 7.2617 86.2992 6.71277C85.9648 6.16383 85.5211 5.73617 84.968 5.42979C84.4279 5.11064 83.8298 4.95107 83.1739 4.95107C82.5179 4.95107 81.9199 5.11064 81.3797 5.42979C80.8395 5.73617 80.3958 6.17021 80.0485 6.73192C79.7141 7.28085 79.5212 7.91277 79.4697 8.62766ZM88.6512 17.5511C88.2267 17.5511 87.828 17.4936 87.455 17.3787C87.0692 17.2638 86.7348 17.0723 86.4518 16.8043L87.0885 15.9234C87.2814 16.1021 87.5065 16.2234 87.7637 16.2872C88.0081 16.3511 88.2525 16.383 88.4968 16.383C88.8055 16.383 89.0949 16.3064 89.365 16.1532C89.6351 16 89.8537 15.783 90.0209 15.5021C90.201 15.234 90.291 14.934 90.291 14.6021V4.10851H91.6029V14.5255C91.6029 15.1128 91.4614 15.6362 91.1785 16.0957C90.8955 16.5553 90.5289 16.9128 90.0788 17.1681C89.6286 17.4234 89.1528 17.5511 88.6512 17.5511ZM90.291 2.02128V0.106384H91.6029V2.02128H90.291ZM93.679 11.2128C93.679 10.5872 93.859 10.0511 94.2191 9.60425C94.5793 9.14468 95.0744 8.79362 95.7046 8.55106C96.3477 8.29575 97.0873 8.16809 97.9233 8.16809C98.412 8.16809 98.92 8.20638 99.4474 8.28298C99.9747 8.35958 100.444 8.47447 100.856 8.62766V7.78511C100.856 6.94255 100.605 6.27234 100.103 5.77447C99.6017 5.2766 98.9072 5.02766 98.0197 5.02766C97.4795 5.02766 96.9458 5.12979 96.4185 5.33404C95.904 5.52553 95.3638 5.81277 94.7979 6.19574L94.2963 5.2766C94.9522 4.82979 95.5953 4.49787 96.2255 4.28085C96.8557 4.05106 97.4988 3.93617 98.1548 3.93617C99.3895 3.93617 100.367 4.28724 101.087 4.98936C101.807 5.69149 102.168 6.6617 102.168 7.9V12.5149C102.168 12.6936 102.206 12.8277 102.283 12.917C102.36 12.9936 102.483 13.0383 102.65 13.0511V14.0851C102.508 14.0979 102.386 14.1106 102.283 14.1234C102.18 14.1362 102.103 14.1362 102.052 14.1234C101.73 14.1106 101.486 14.0085 101.319 13.817C101.152 13.6255 101.061 13.4213 101.049 13.2043L101.029 12.4766C100.579 13.0511 99.994 13.4979 99.2737 13.817C98.5535 14.1234 97.8204 14.2766 97.0744 14.2766C96.4313 14.2766 95.8461 14.1426 95.3188 13.8745C94.8043 13.5936 94.3992 13.2234 94.1034 12.7638C93.8204 12.2915 93.679 11.7745 93.679 11.2128ZM100.412 11.9787C100.553 11.8 100.663 11.6277 100.74 11.4617C100.817 11.2957 100.856 11.1489 100.856 11.0213V9.56596C100.418 9.4 99.9618 9.27234 99.4859 9.18298C99.0229 9.09362 98.5535 9.04894 98.0776 9.04894C97.1387 9.04894 96.3799 9.23404 95.8011 9.60425C95.2223 9.97447 94.9329 10.4787 94.9329 11.117C94.9329 11.4872 95.0294 11.8383 95.2223 12.1702C95.4153 12.4894 95.6982 12.7574 96.0712 12.9745C96.4442 13.1787 96.8815 13.2809 97.3831 13.2809C98.0133 13.2809 98.5985 13.1596 99.1387 12.917C99.6917 12.6745 100.116 12.3617 100.412 11.9787ZM113.452 14.0851H112.14V8.51277C112.14 7.3383 111.966 6.48298 111.619 5.94681C111.272 5.39787 110.725 5.1234 109.979 5.1234C109.465 5.1234 108.957 5.25107 108.455 5.50638C107.953 5.74894 107.51 6.08723 107.124 6.52128C106.751 6.94255 106.481 7.42766 106.313 7.9766V14.0851H105.002V4.10851H106.198V6.36808C106.468 5.88298 106.822 5.4617 107.259 5.10425C107.696 4.73404 108.191 4.44681 108.744 4.24256C109.297 4.0383 109.87 3.93617 110.461 3.93617C111.014 3.93617 111.484 4.0383 111.87 4.24256C112.256 4.44681 112.564 4.74043 112.796 5.1234C113.027 5.49362 113.194 5.94681 113.297 6.48298C113.4 7.00638 113.452 7.59362 113.452 8.24468V14.0851ZM115.575 9.12553C115.575 8.18085 115.768 7.31915 116.154 6.54043C116.552 5.74894 117.099 5.11702 117.793 4.64468C118.488 4.17234 119.279 3.93617 120.166 3.93617C121.002 3.93617 121.748 4.15958 122.404 4.60638C123.073 5.04043 123.594 5.57021 123.967 6.19574V0.106384H125.279V12.5149C125.279 12.6936 125.317 12.8277 125.395 12.917C125.472 12.9936 125.588 13.0383 125.742 13.0511V14.0851C125.485 14.1234 125.285 14.1362 125.144 14.1234C124.874 14.1106 124.636 14.0021 124.43 13.7979C124.224 13.5936 124.121 13.3702 124.121 13.1277V12.1511C123.723 12.8021 123.182 13.3191 122.501 13.7021C121.819 14.0851 121.112 14.2766 120.379 14.2766C119.684 14.2766 119.041 14.1362 118.449 13.8553C117.871 13.5745 117.363 13.1915 116.925 12.7064C116.501 12.2213 116.166 11.6723 115.922 11.0596C115.691 10.434 115.575 9.78936 115.575 9.12553ZM123.967 10.6574V7.57447C123.8 7.1149 123.53 6.7 123.157 6.32979C122.784 5.94681 122.359 5.64681 121.883 5.42979C121.42 5.2 120.957 5.08511 120.494 5.08511C119.954 5.08511 119.465 5.2 119.028 5.42979C118.591 5.64681 118.211 5.94681 117.89 6.32979C117.581 6.71277 117.343 7.14681 117.176 7.63191C117.009 8.11702 116.925 8.6149 116.925 9.12553C116.925 9.6617 117.015 10.1723 117.195 10.6574C117.388 11.1426 117.658 11.5766 118.006 11.9596C118.353 12.3298 118.752 12.617 119.202 12.8213C119.652 13.0255 120.141 13.1277 120.668 13.1277C121.002 13.1277 121.35 13.0638 121.71 12.9362C122.07 12.8085 122.411 12.6362 122.732 12.4191C123.067 12.1894 123.343 11.9213 123.562 11.6149C123.781 11.3085 123.916 10.9894 123.967 10.6574ZM133.267 5.25745C132.392 5.28298 131.621 5.52553 130.952 5.98511C130.296 6.44468 129.833 7.0766 129.563 7.88085V14.0851H128.251V4.10851H129.486V6.50213C129.833 5.8 130.29 5.23192 130.855 4.79787C131.434 4.36383 132.045 4.12128 132.688 4.07021C132.817 4.05745 132.926 4.05107 133.016 4.05107C133.119 4.05107 133.203 4.05745 133.267 4.07021V5.25745ZM138.977 14.2766C138.257 14.2766 137.588 14.1426 136.971 13.8745C136.367 13.5936 135.839 13.217 135.389 12.7447C134.952 12.2596 134.611 11.7106 134.367 11.0979C134.122 10.4723 134 9.8149 134 9.12553C134 8.41064 134.122 7.74681 134.367 7.13404C134.611 6.50851 134.958 5.95957 135.408 5.48723C135.859 5.00213 136.386 4.62553 136.99 4.35745C137.608 4.0766 138.277 3.93617 138.997 3.93617C139.717 3.93617 140.379 4.0766 140.984 4.35745C141.588 4.62553 142.116 5.00213 142.566 5.48723C143.016 5.95957 143.363 6.50851 143.608 7.13404C143.852 7.74681 143.974 8.41064 143.974 9.12553C143.974 9.8149 143.852 10.4723 143.608 11.0979C143.363 11.7106 143.016 12.2596 142.566 12.7447C142.129 13.217 141.601 13.5936 140.984 13.8745C140.379 14.1426 139.711 14.2766 138.977 14.2766ZM135.331 9.14468C135.331 9.88511 135.492 10.5617 135.814 11.1745C136.148 11.7745 136.592 12.2532 137.145 12.6106C137.698 12.9553 138.309 13.1277 138.977 13.1277C139.646 13.1277 140.257 12.9489 140.81 12.5915C141.363 12.234 141.807 11.7489 142.141 11.1362C142.476 10.5106 142.643 9.83404 142.643 9.10638C142.643 8.36596 142.476 7.68936 142.141 7.07659C141.807 6.46383 141.363 5.97872 140.81 5.62128C140.257 5.26383 139.646 5.08511 138.977 5.08511C138.309 5.08511 137.698 5.27021 137.145 5.64043C136.605 6.01064 136.167 6.50213 135.833 7.1149C135.498 7.7149 135.331 8.39149 135.331 9.14468Z" fill="white"/>
<path d="M50.158 23.7426C51.6337 23.7426 52.9526 24.0596 54.1144 24.6933C55.2866 25.3166 56.2025 26.1892 56.8618 27.3113C57.5213 28.4229 57.851 29.68 57.851 31.0824C57.851 32.5785 57.5266 33.8979 56.8776 35.0406C56.2286 36.1835 55.3233 37.0717 54.1614 37.7054C53.0101 38.3288 51.6965 38.6404 50.2208 38.6404H45.8875V44.9362H40.9105V23.7426H50.158ZM49.9538 34.2615C50.4877 34.2615 50.9744 34.1213 51.4139 33.8407C51.8641 33.5602 52.2199 33.1758 52.4815 32.6875C52.7432 32.1992 52.874 31.6642 52.874 31.0824C52.874 30.5942 52.7432 30.1215 52.4815 29.6643C52.2199 29.2072 51.8641 28.8385 51.4139 28.558C50.9639 28.2774 50.4771 28.1372 49.9538 28.1372H45.8875V34.2615H49.9538ZM73.2214 44.9362L71.8398 41.4922H62.9378L61.5562 44.9362H56.2967L65.0573 23.7271H69.7203L78.4809 44.9362H73.2214ZM64.5706 37.3938H70.207L67.5536 30.7708L67.4124 30.1163H67.3653L67.2239 30.7708L64.5706 37.3938ZM80.7575 23.7426H85.7344V40.5416H94.6992V44.9362H80.7575V23.7426ZM97.5252 23.7426H101.906L108.547 32.859V32.8434L115.282 23.7426H119.616V44.9362H114.654V31.6123L109.175 39.2326H107.919L102.502 31.5655V44.9362H97.5252V23.7426ZM138.817 44.9362L137.435 41.4922H128.533L127.151 44.9362H121.892L130.653 23.7271H135.315L144.076 44.9362H138.817ZM130.165 37.3938H135.802L133.149 30.7708L133.008 30.1163H132.96L132.819 30.7708L130.165 37.3938ZM155.725 23.7426C157.212 23.7426 158.541 24.0439 159.714 24.6465C160.886 25.249 161.796 26.0906 162.446 27.171C163.105 28.2515 163.435 29.4878 163.435 30.8799C163.435 32.3032 163.068 33.5602 162.335 34.651C161.613 35.7316 160.629 36.5367 159.383 37.0665L163.936 44.9362H158.238L154.501 37.8457H153.543H151.33V44.9362H146.353V23.7426H155.725ZM155.522 33.716C156.066 33.716 156.562 33.5966 157.013 33.3576C157.463 33.1083 157.813 32.7707 158.065 32.3448C158.327 31.9084 158.457 31.4201 158.457 30.8799C158.457 30.3916 158.327 29.9397 158.065 29.5241C157.804 29.0982 157.448 28.7605 156.998 28.5112C156.547 28.2619 156.055 28.1372 155.522 28.1372H151.33V33.716H155.522Z" fill="white"/>
<path d="M0.82959 21.4468L36.7562 0V6.21277L9.3182 22.8936L36.7562 39.4894V45.8723L0.82959 24.5958V21.4468Z" fill="#09FC6A"/>
<path d="M203.699 24.5958L167.772 45.8723V39.4894L195.21 22.8936L167.772 6.21277V0L203.699 21.4468V24.5958Z" fill="#09FC6A"/>
</svg>
