<svg width="203" height="46" viewBox="0 0 203 46" fill="none" xmlns="http://www.w3.org/2000/svg">
<path d="M64.2241 0.489364H65.3623L71.0536 14.0851H69.6259L67.851 9.83404H61.6968L59.9412 14.0851H58.4943L64.2241 0.489364ZM67.5424 8.78085L64.7836 2.05957L61.9862 8.78085H67.5424ZM72.805 0.106384H74.1169V11.8255C74.1169 12.3234 74.2069 12.6489 74.3869 12.8021C74.567 12.9553 74.7857 13.0319 75.0429 13.0319C75.2744 13.0319 75.5059 13.0064 75.7374 12.9553C75.9689 12.9043 76.1683 12.8532 76.3355 12.8021L76.567 13.8553C76.3226 13.9574 76.0204 14.0404 75.6602 14.1043C75.313 14.1681 75.0107 14.2 74.7535 14.2C74.1619 14.2 73.686 14.0277 73.3259 13.683C72.9786 13.3383 72.805 12.866 72.805 12.266V0.106384ZM82.3443 14.2766C81.624 14.2766 80.9552 14.1426 80.3379 13.8745C79.7205 13.5936 79.1868 13.217 78.7366 12.7447C78.2865 12.2596 77.9328 11.7043 77.6755 11.0787C77.4312 10.4532 77.309 9.78298 77.309 9.06809C77.309 8.13617 77.5212 7.28085 77.9456 6.50213C78.3829 5.72341 78.981 5.10426 79.7398 4.64468C80.4986 4.17234 81.3604 3.93617 82.325 3.93617C83.3153 3.93617 84.177 4.17234 84.9101 4.64468C85.6561 5.11702 86.2413 5.74255 86.6657 6.52128C87.0902 7.28723 87.3024 8.12979 87.3024 9.04894C87.3024 9.15106 87.3024 9.25319 87.3024 9.35532C87.3024 9.44468 87.296 9.51489 87.2831 9.56596H78.6787C78.743 10.2809 78.9424 10.9191 79.2768 11.4808C79.6241 12.0298 80.0678 12.4702 80.608 12.8021C81.161 13.1213 81.7591 13.2809 82.4021 13.2809C83.0581 13.2809 83.6754 13.1149 84.2542 12.783C84.8458 12.4511 85.2574 12.017 85.4889 11.4808L86.6272 11.7872C86.4214 12.2596 86.1063 12.6872 85.6818 13.0702C85.2574 13.4532 84.7558 13.7532 84.177 13.9702C83.6111 14.1745 83.0002 14.2766 82.3443 14.2766ZM78.6401 8.62766H86.0677C86.0162 7.9 85.8169 7.2617 85.4696 6.71277C85.1352 6.16383 84.6915 5.73617 84.1385 5.42979C83.5983 5.11064 83.0002 4.95107 82.3443 4.95107C81.6883 4.95107 81.0903 5.11064 80.5501 5.42979C80.0099 5.73617 79.5662 6.17021 79.2189 6.73192C78.8845 7.28085 78.6916 7.91277 78.6401 8.62766ZM87.8216 17.5511C87.3971 17.5511 86.9984 17.4936 86.6254 17.3787C86.2396 17.2638 85.9052 17.0723 85.6223 16.8043L86.2589 15.9234C86.4518 16.1021 86.6769 16.2234 86.9341 16.2872C87.1785 16.3511 87.4229 16.383 87.6672 16.383C87.9759 16.383 88.2653 16.3064 88.5354 16.1532C88.8055 16 89.0241 15.783 89.1913 15.5021C89.3714 15.234 89.4614 14.934 89.4614 14.6021V4.10851H90.7733V14.5255C90.7733 15.1128 90.6318 15.6362 90.3489 16.0957C90.0659 16.5553 89.6994 16.9128 89.2492 17.1681C88.799 17.4234 88.3232 17.5511 87.8216 17.5511ZM89.4614 2.02128V0.106384H90.7733V2.02128H89.4614ZM92.8494 11.2128C92.8494 10.5872 93.0294 10.0511 93.3895 9.60425C93.7497 9.14468 94.2448 8.79362 94.875 8.55106C95.5181 8.29575 96.2577 8.16809 97.0937 8.16809C97.5824 8.16809 98.0904 8.20638 98.6178 8.28298C99.1451 8.35958 99.6145 8.47447 100.026 8.62766V7.78511C100.026 6.94255 99.7753 6.27234 99.2737 5.77447C98.7721 5.2766 98.0776 5.02766 97.1901 5.02766C96.6499 5.02766 96.1162 5.12979 95.5889 5.33404C95.0744 5.52553 94.5342 5.81277 93.9683 6.19574L93.4667 5.2766C94.1227 4.82979 94.7657 4.49787 95.3959 4.28085C96.0262 4.05106 96.6692 3.93617 97.3252 3.93617C98.5599 3.93617 99.5374 4.28724 100.258 4.98936C100.978 5.69149 101.338 6.6617 101.338 7.9V12.5149C101.338 12.6936 101.377 12.8277 101.454 12.917C101.531 12.9936 101.653 13.0383 101.82 13.0511V14.0851C101.679 14.0979 101.557 14.1106 101.454 14.1234C101.351 14.1362 101.274 14.1362 101.222 14.1234C100.901 14.1106 100.656 14.0085 100.489 13.817C100.322 13.6255 100.232 13.4213 100.219 13.2043L100.2 12.4766C99.7496 13.0511 99.1644 13.4979 98.4441 13.817C97.7239 14.1234 96.9908 14.2766 96.2448 14.2766C95.6017 14.2766 95.0165 14.1426 94.4892 13.8745C93.9747 13.5936 93.5696 13.2234 93.2738 12.7638C92.9908 12.2915 92.8494 11.7745 92.8494 11.2128ZM99.5824 11.9787C99.7239 11.8 99.8332 11.6277 99.9104 11.4617C99.9875 11.2957 100.026 11.1489 100.026 11.0213V9.56596C99.5888 9.4 99.1322 9.27234 98.6563 9.18298C98.1933 9.09362 97.7239 9.04894 97.248 9.04894C96.3091 9.04894 95.5503 9.23404 94.9715 9.60425C94.3927 9.97447 94.1034 10.4787 94.1034 11.117C94.1034 11.4872 94.1998 11.8383 94.3927 12.1702C94.5857 12.4894 94.8686 12.7574 95.2416 12.9745C95.6146 13.1787 96.0519 13.2809 96.5535 13.2809C97.1837 13.2809 97.7689 13.1596 98.3091 12.917C98.8621 12.6745 99.2866 12.3617 99.5824 11.9787ZM112.622 14.0851H111.31V8.51277C111.31 7.3383 111.137 6.48298 110.789 5.94681C110.442 5.39787 109.895 5.1234 109.149 5.1234C108.635 5.1234 108.127 5.25107 107.625 5.50638C107.124 5.74894 106.68 6.08723 106.294 6.52128C105.921 6.94255 105.651 7.42766 105.484 7.9766V14.0851H104.172V4.10851H105.368V6.36808C105.638 5.88298 105.992 5.4617 106.429 5.10425C106.867 4.73404 107.362 4.44681 107.915 4.24256C108.468 4.0383 109.04 3.93617 109.632 3.93617C110.185 3.93617 110.654 4.0383 111.04 4.24256C111.426 4.44681 111.735 4.74043 111.966 5.1234C112.198 5.49362 112.365 5.94681 112.468 6.48298C112.571 7.00638 112.622 7.59362 112.622 8.24468V14.0851ZM114.745 9.12553C114.745 8.18085 114.938 7.31915 115.324 6.54043C115.723 5.74894 116.269 5.11702 116.964 4.64468C117.658 4.17234 118.449 3.93617 119.337 3.93617C120.173 3.93617 120.919 4.15958 121.575 4.60638C122.244 5.04043 122.764 5.57021 123.137 6.19574V0.106384H124.449V12.5149C124.449 12.6936 124.488 12.8277 124.565 12.917C124.642 12.9936 124.758 13.0383 124.912 13.0511V14.0851C124.655 14.1234 124.456 14.1362 124.314 14.1234C124.044 14.1106 123.806 14.0021 123.6 13.7979C123.395 13.5936 123.292 13.3702 123.292 13.1277V12.1511C122.893 12.8021 122.353 13.3191 121.671 13.7021C120.99 14.0851 120.282 14.2766 119.549 14.2766C118.855 14.2766 118.211 14.1362 117.62 13.8553C117.041 13.5745 116.533 13.1915 116.096 12.7064C115.671 12.2213 115.337 11.6723 115.093 11.0596C114.861 10.434 114.745 9.78936 114.745 9.12553ZM123.137 10.6574V7.57447C122.97 7.1149 122.7 6.7 122.327 6.32979C121.954 5.94681 121.53 5.64681 121.054 5.42979C120.591 5.2 120.128 5.08511 119.665 5.08511C119.125 5.08511 118.636 5.2 118.199 5.42979C117.761 5.64681 117.382 5.94681 117.06 6.32979C116.752 6.71277 116.514 7.14681 116.347 7.63191C116.179 8.11702 116.096 8.6149 116.096 9.12553C116.096 9.6617 116.186 10.1723 116.366 10.6574C116.559 11.1426 116.829 11.5766 117.176 11.9596C117.523 12.3298 117.922 12.617 118.372 12.8213C118.822 13.0255 119.311 13.1277 119.838 13.1277C120.173 13.1277 120.52 13.0638 120.88 12.9362C121.24 12.8085 121.581 12.6362 121.903 12.4191C122.237 12.1894 122.514 11.9213 122.732 11.6149C122.951 11.3085 123.086 10.9894 123.137 10.6574ZM132.437 5.25745C131.563 5.28298 130.791 5.52553 130.122 5.98511C129.466 6.44468 129.003 7.0766 128.733 7.88085V14.0851H127.421V4.10851H128.656V6.50213C129.003 5.8 129.46 5.23192 130.026 4.79787C130.605 4.36383 131.216 4.12128 131.859 4.07021C131.987 4.05745 132.097 4.05107 132.187 4.05107C132.289 4.05107 132.373 4.05745 132.437 4.07021V5.25745ZM138.148 14.2766C137.428 14.2766 136.759 14.1426 136.142 13.8745C135.537 13.5936 135.01 13.217 134.56 12.7447C134.122 12.2596 133.781 11.7106 133.537 11.0979C133.293 10.4723 133.17 9.8149 133.17 9.12553C133.17 8.41064 133.293 7.74681 133.537 7.13404C133.781 6.50851 134.129 5.95957 134.579 5.48723C135.029 5.00213 135.556 4.62553 136.161 4.35745C136.778 4.0766 137.447 3.93617 138.167 3.93617C138.887 3.93617 139.55 4.0766 140.154 4.35745C140.759 4.62553 141.286 5.00213 141.736 5.48723C142.186 5.95957 142.534 6.50851 142.778 7.13404C143.022 7.74681 143.145 8.41064 143.145 9.12553C143.145 9.8149 143.022 10.4723 142.778 11.0979C142.534 11.7106 142.186 12.2596 141.736 12.7447C141.299 13.217 140.772 13.5936 140.154 13.8745C139.55 14.1426 138.881 14.2766 138.148 14.2766ZM134.502 9.14468C134.502 9.88511 134.662 10.5617 134.984 11.1745C135.318 11.7745 135.762 12.2532 136.315 12.6106C136.868 12.9553 137.479 13.1277 138.148 13.1277C138.817 13.1277 139.428 12.9489 139.981 12.5915C140.534 12.234 140.977 11.7489 141.312 11.1362C141.646 10.5106 141.813 9.83404 141.813 9.10638C141.813 8.36596 141.646 7.68936 141.312 7.07659C140.977 6.46383 140.534 5.97872 139.981 5.62128C139.428 5.26383 138.817 5.08511 138.148 5.08511C137.479 5.08511 136.868 5.27021 136.315 5.64043C135.775 6.01064 135.338 6.50213 135.003 7.1149C134.669 7.7149 134.502 8.39149 134.502 9.14468Z" fill="#03193A"/>
<path d="M49.3284 23.7426C50.8041 23.7426 52.123 24.0596 53.2848 24.6933C54.457 25.3166 55.3729 26.1892 56.0322 27.3113C56.6917 28.4229 57.0214 29.68 57.0214 31.0824C57.0214 32.5785 56.697 33.8979 56.048 35.0406C55.399 36.1835 54.4937 37.0717 53.3319 37.7054C52.1805 38.3288 50.8669 38.6404 49.3912 38.6404H45.0579V44.9362H40.0809V23.7426H49.3284ZM49.1242 34.2615C49.6581 34.2615 50.1448 34.1213 50.5843 33.8407C51.0345 33.5602 51.3903 33.1758 51.6519 32.6875C51.9137 32.1992 52.0444 31.6642 52.0444 31.0824C52.0444 30.5942 51.9137 30.1215 51.6519 29.6643C51.3903 29.2072 51.0345 28.8385 50.5843 28.558C50.1343 28.2774 49.6476 28.1372 49.1242 28.1372H45.0579V34.2615H49.1242ZM72.3918 44.9362L71.0103 41.4922H62.1082L60.7266 44.9362H55.4671L64.2277 23.7271H68.8907L77.6513 44.9362H72.3918ZM63.741 37.3938H69.3774L66.724 30.7708L66.5828 30.1163H66.5357L66.3944 30.7708L63.741 37.3938ZM79.9279 23.7426H84.9048V40.5416H93.8696V44.9362H79.9279V23.7426ZM96.6956 23.7426H101.076L107.718 32.859V32.8434L114.453 23.7426H118.786V44.9362H113.825V31.6123L108.346 39.2326H107.089L101.673 31.5655V44.9362H96.6956V23.7426ZM137.987 44.9362L136.606 41.4922H127.703L126.322 44.9362H121.062L129.823 23.7271H134.486L143.246 44.9362H137.987ZM129.336 37.3938H134.972L132.32 30.7708L132.178 30.1163H132.131L131.989 30.7708L129.336 37.3938ZM154.896 23.7426C156.382 23.7426 157.711 24.0439 158.884 24.6465C160.056 25.249 160.966 26.0906 161.616 27.171C162.275 28.2515 162.605 29.4878 162.605 30.8799C162.605 32.3032 162.239 33.5602 161.506 34.651C160.783 35.7316 159.799 36.5367 158.554 37.0665L163.107 44.9362H157.408L153.672 37.8457H152.714H150.5V44.9362H145.523V23.7426H154.896ZM154.692 33.716C155.237 33.716 155.733 33.5966 156.183 33.3576C156.633 33.1083 156.984 32.7707 157.236 32.3448C157.497 31.9084 157.628 31.4201 157.628 30.8799C157.628 30.3916 157.497 29.9397 157.236 29.5241C156.974 29.0982 156.618 28.7605 156.168 28.5112C155.718 28.2619 155.226 28.1372 154.692 28.1372H150.5V33.716H154.692Z" fill="#03193A"/>
<path d="M0 21.4468L35.9266 0V6.21277L8.48862 22.8936L35.9266 39.4894V45.8723L0 24.5958V21.4468Z" fill="#03193A"/>
<path d="M202.869 24.5958L166.943 45.8723V39.4894L194.381 22.8936L166.943 6.21277V0L202.869 21.4468V24.5958Z" fill="#03193A"/>
</svg>
