<svg width="108" height="138" viewBox="0 0 108 138" fill="none" xmlns="http://www.w3.org/2000/svg">
<path d="M48.4509 0.622223H70.8263V103.227C59.3652 105.396 50.9279 106.25 41.7989 106.25C14.4703 106.221 0.244446 94.0059 0.244446 70.5458C0.244446 47.942 15.3341 33.2722 38.7175 33.2722C42.3461 33.2722 45.1104 33.5579 48.4509 34.4138V0.622223ZM49.235 52.9044C46.6143 52.0481 44.4548 51.7628 41.6901 51.7628C30.373 51.7628 23.8361 58.6693 23.8361 70.7731C23.8361 82.5576 30.0854 89.0646 41.5465 89.0646C44.0226 89.0646 46.0385 88.9251 49.235 88.4969V52.9044Z" fill="#2BA977"/>
<path d="M107.416 36.027V87.3999C107.416 105.092 106.092 113.6 102.204 120.935C98.5755 127.987 93.7954 132.433 83.918 137.345L63.1553 127.556C73.0327 122.963 77.8128 118.905 80.8656 112.712C84.0616 106.379 85.0696 99.044 85.0696 79.7509V36.0274L107.416 36.027ZM82.8147 0.622307H105.19V23.3689H82.8147V0.622307Z" fill="#2BA977"/>
</svg>
